<?xml version="1.0" encoding="UTF-8" standalone="no"?>
<!-- Generator: Adobe Illustrator 13.0.2, SVG Export Plug-In . SVG Version: 6.00 Build 14948)  -->

<svg
   xmlns:dc="http://purl.org/dc/elements/1.1/"
   xmlns:cc="http://creativecommons.org/ns#"
   xmlns:rdf="http://www.w3.org/1999/02/22-rdf-syntax-ns#"
   xmlns:svg="http://www.w3.org/2000/svg"
   xmlns="http://www.w3.org/2000/svg"
   xmlns:sodipodi="http://sodipodi.sourceforge.net/DTD/sodipodi-0.dtd"
   xmlns:inkscape="http://www.inkscape.org/namespaces/inkscape"
   version="1.1"
   x="0px"
   y="0px"
   width="696.758px"
   height="691.246px"
   viewBox="46.797 120.547 696.758 691.246"
   enable-background="new 46.797 120.547 696.758 691.246"
   xml:space="preserve"
   id="svg226"
   sodipodi:docname="tennengau_polygon.svg"
   inkscape:version="0.92.3 (2405546, 2018-03-11)"><metadata
   id="metadata232"><rdf:RDF><cc:Work
       rdf:about=""><dc:format>image/svg+xml</dc:format><dc:type
         rdf:resource="http://purl.org/dc/dcmitype/StillImage" /></cc:Work></rdf:RDF></metadata><defs
   id="defs230">
	
	
	
	
	
	

		
			
		
			
		
			
		
			
		
			
		
			
		
			
		
			
		
			
		
			
		
			
		
			
		
			
	</defs><sodipodi:namedview
   pagecolor="#ffffff"
   bordercolor="#666666"
   borderopacity="1"
   objecttolerance="10"
   gridtolerance="10"
   guidetolerance="10"
   inkscape:pageopacity="0"
   inkscape:pageshadow="2"
   inkscape:window-width="1920"
   inkscape:window-height="1017"
   id="namedview228"
   showgrid="false"
   inkscape:zoom="0.96566031"
   inkscape:cx="354.29049"
   inkscape:cy="403.60866"
   inkscape:window-x="-8"
   inkscape:window-y="-8"
   inkscape:window-maximized="1"
   inkscape:current-layer="svg226" />
<path
   inkscape:connector-curvature="0"
   style="fill:#123456;stroke:#000000;stroke-width:0.40294266;stroke-linecap:round;stroke-linejoin:round;stroke-miterlimit:10"
   d="m 472.62272,348.73937 11.12525,7.45444 37.07072,3.65066 59.34136,33.39186 36.85314,-11.15345 29.73716,59.34136 -14.74367,33.23068 14.74367,18.44269 -22.26661,55.65846 51.84663,55.47714 14.80009,-11.10509 -7.47459,70.23693 -11.00033,-25.9213 -40.64886,-14.83635 -29.78955,7.531 3.80781,11.09301 h -11.10107 l -25.94547,51.87886 -40.71333,-7.49473 -51.81842,18.44268 -44.54531,-3.61439 -40.70527,-48.03882 55.63832,-74.11324 -26.06233,-110.97846 14.94917,-37.01029 11.11316,-3.81183 3.6829,-36.89343 -18.61595,-33.42006 z"
   id="Abtenau" /><path
   inkscape:connector-curvature="0"
   style="fill:#123456;stroke:#000000;stroke-width:0.40294266;stroke-linecap:round;stroke-linejoin:round;stroke-miterlimit:10"
   d="m 235.76095,359.81627 -62.81876,-25.90518 -7.48667,-33.27098 33.38783,-33.37574 51.68948,-73.91982 11.12927,-29.76135 22.2505,0.0161 11.14136,37.04252 -40.7093,37.06266 -14.7759,44.35996 25.90921,7.45041 14.79202,37.05057 7.32953,-7.45444 14.79202,11.12928 -40.72944,3.67081 z"
   id="Adnet" /><path
   inkscape:connector-curvature="0"
   style="fill:#123456;stroke:#000000;stroke-width:0.40294266;stroke-linecap:round;stroke-linejoin:round;stroke-miterlimit:10"
   d="m 672.68777,637.65328 11.13734,25.68356 59.13586,70.48273 -22.25452,25.94547 -29.57599,3.65066 v 18.41045 l -62.93964,29.76538 -22.16588,-3.64663 -77.72763,-122.30518 40.6972,7.51488 25.94548,-51.85469 h 11.10107 l -3.79572,-11.11719 29.76134,-7.50682 z"
   id="Annaberg-Lungötz" /><path
   inkscape:connector-curvature="0"
   style="fill:#123456;stroke:#000000;stroke-width:0.40294266;stroke-linecap:round;stroke-linejoin:round;stroke-miterlimit:10"
   d="m 194.85018,389.56552 -18.47089,10.96004 -3.66678,-66.58224 62.83488,25.93339 25.90518,-25.93339 40.89465,-3.66275 7.28923,11.09704 h 25.9616 l -18.45075,55.46506 -81.58379,-22.23035 -22.09738,22.23035 z"
   id="Bad_Vigaun" /><path
   inkscape:connector-curvature="0"
   style="fill:#123456;stroke:#000000;stroke-width:0.40294266;stroke-linecap:round;stroke-linejoin:round;stroke-miterlimit:10"
   d="m 172.92607,667.18897 -33.39185,25.9213 -70.289316,-11.11316 -22.246463,-25.96159 37.046546,-59.31719 -18.632068,-47.99852 40.862411,-11.14943 70.28932,11.14943 40.71735,-55.66653 74.1495,29.74523 -11.17762,14.78799 25.92935,22.23841 v 66.60641 l -66.64268,-14.90887 -55.64638,44.51307 7.4625,25.96159 z"
   id="Golling_an_der_Salzach" /><path
   inkscape:connector-curvature="0"
   style="fill:#123456;stroke:#000000;stroke-width:0.40294266;stroke-linecap:round;stroke-linejoin:round;stroke-miterlimit:10"
   d="m 165.45552,419.11734 3.65872,14.78799 -25.88101,11.16151 -25.9495,-74.1213 3.83198,-37.03445 -51.838571,-55.48521 v -25.92935 h 10.964069 l 40.874502,-14.79203 3.65872,51.85066 v 18.43463 l 22.28273,18.61595 18.41448,-25.92936 7.48264,33.23471 3.67887,66.57418 11.1333,22.29079 z"
   id="Hallein" /><path
   inkscape:connector-curvature="0"
   style="fill:#123456;stroke:#000000;stroke-width:0.40294266;stroke-linecap:round;stroke-linejoin:round;stroke-miterlimit:10"
   d="m 309.65257,341.37761 -7.27714,-11.09704 -15.01768,-11.13733 -7.27311,7.44638 -14.78799,-37.05058 -25.92533,-7.47458 14.77993,-44.35996 40.70527,-37.04655 25.92533,48.18791 14.8162,-3.66274 33.37574,77.6269 -33.37574,18.56759 z"
   id="Krispl" /><path
   inkscape:connector-curvature="0"
   style="fill:#123456;stroke:#000000;stroke-width:0.40294266;stroke-linecap:round;stroke-linejoin:round;stroke-miterlimit:10"
   d="m 106.31563,537.57038 -11.153456,-25.88906 48.062996,-66.65477 25.88907,-11.12122 -3.65872,-14.80411 22.31093,3.65469 -11.1333,-22.28676 18.42656,-10.96407 18.59984,7.30535 22.11752,-22.25049 40.84629,107.55345 -14.97738,7.30938 14.97738,22.29078 36.8894,3.63052 -22.08126,7.45444 -74.13338,-29.74523 -40.71333,55.66653 z"
   id="Kuchl" /><path
   inkscape:connector-curvature="0"
   style="fill:#123456;stroke:#000000;stroke-width:0.40294266;stroke-linecap:round;stroke-linejoin:round;stroke-miterlimit:10"
   d="m 124.74622,307.98979 v -18.47492 l 59.16004,-29.54779 14.93709,7.29729 -33.38783,33.37574 -18.42254,25.96563 z"
   id="Oberalm" /><path
   inkscape:connector-curvature="0"
   style="fill:#123456;stroke:#000000;stroke-width:0.40294266;stroke-linecap:round;stroke-linejoin:round;stroke-miterlimit:10"
   d="m 198.84335,267.29661 -14.93709,-7.31341 -59.16004,29.57196 -3.6426,-51.81842 v -25.92533 l 14.788,-14.80009 40.69317,14.80009 51.82649,-33.40798 22.12155,14.95723 z"
   id="Puch_bei_Hallein" /><path
   inkscape:connector-curvature="0"
   style="fill:#123456;stroke:#000000;stroke-width:0.40294266;stroke-linecap:round;stroke-linejoin:round;stroke-miterlimit:10"
   d="m 724.49411,552.38659 -37.07476,29.55584 3.67484,11.10913 -14.77993,11.15748 -51.85469,-55.48923 22.25855,-55.66653 -14.76785,-18.40642 14.76785,-33.2468 37.09087,22.08932 18.43462,-11.13733 37.05461,-7.28521 7.29729,22.24647 z"
   id="Rußbach_am_Paß_Gschütt" /><path
   inkscape:connector-curvature="0"
   style="fill:#123456;stroke:#000000;stroke-width:0.40294266;stroke-linecap:round;stroke-linejoin:round;stroke-miterlimit:10"
   d="m 343.1774,482.08518 h -66.57015 l -40.89062,-107.47286 81.55962,22.23035 18.4588,-55.46506 33.36365,-18.56759 62.84293,33.38379 18.63207,33.38783 -3.70707,36.83299 -11.09301,3.85616 -29.74523,7.29729 7.47459,22.22632 -22.26258,7.51891 -44.32772,-11.16152 h -11.16151 z"
   id="Sankt_Koloman" /><path
   inkscape:connector-curvature="0"
   style="fill:#123456;stroke:#000000;stroke-width:0.40294266;stroke-linecap:round;stroke-linejoin:round;stroke-miterlimit:10"
   d="m 391.25651,467.34554 22.24647,-7.47056 -7.43429,-22.27466 29.72105,-7.2973 -14.94515,37.04252 26.05024,110.98249 -55.63832,74.04474 -51.8426,10.96407 -33.23068,-36.83702 v -66.60641 l -25.92935,-22.29079 11.17762,-14.75173 22.08126,-7.46653 -36.8894,-3.67081 -14.97738,-22.22228 14.97738,-7.37788 h 66.57016 l -7.41818,-25.91727 h 11.15345 z"
   id="Scheffau_am_Tennengebirge" />

</svg>